<?xml version="1.0" encoding="UTF-8"?>
<svg id="_Слой_1" data-name="Слой_1" xmlns="http://www.w3.org/2000/svg" version="1.1" viewBox="0 0 800 800">
  <!-- Generator: Adobe Illustrator 29.4.0, SVG Export Plug-In . SVG Version: 2.1.0 Build 152)  -->
  <defs>
    <style>
      .st0 {
        fill: #f0f8ff;
      }
    </style>
  </defs>
  <path class="st0" d="M227.8,227.8c0-45.67,18.15-89.47,50.44-121.77s76.09-50.43,121.77-50.43,89.47,18.14,121.76,50.43,50.44,76.1,50.44,121.77-18.15,89.47-50.44,121.77-76.09,50.44-121.76,50.44-89.47-18.15-121.77-50.44-50.44-76.09-50.44-121.77ZM473.8,449.2h-147.6c-58.72,0-115.03,23.33-156.56,64.85-41.52,41.52-64.84,97.83-64.84,156.56v49.2c0,6.52,2.59,12.78,7.2,17.4,4.61,4.61,10.87,7.2,17.4,7.2h541.2c6.52,0,12.78-2.59,17.4-7.2,4.61-4.61,7.2-10.87,7.2-17.4v-49.2c0-58.72-23.32-115.03-64.84-156.56s-97.83-64.84-156.56-64.84h.02Z"/>
</svg>